<svg id="Layer_1" enable-background="new 0 0 510 510" height="512" viewBox="0 0 510 510" width="512" xmlns="http://www.w3.org/2000/svg"><g><g><path d="m502.093 318.121c.236-.91.463-1.826.688-2.743-.222.917-.455 1.83-.688 2.743z" fill="#afe6ff"/><path d="m255 0c-98.131 0-158.574 55.347-158.741 55.441-3.787 17.481-10.374 42.85-10.374 61.465 0 140.833 118.763 254.972 259.596 254.972 60.017 0 115.159-27.944 158.719-62.639.178-1.087 5.8-23.477 5.8-54.239 0-140.833-114.167-255-255-255z" fill="#fcb54c"/><path d="m504.2 309.239c-43.559 34.696-98.724 55.441-158.741 55.441-140.833 0-255-114.167-255-255 0-18.615 2.013-36.757 5.8-54.239-.006.005-.011.01-.017.014-58.645 46.72-96.242 118.737-96.242 199.545 0 140.833 114.167 255 255 255 119.042 0 219.002-81.583 247.093-191.879.233-.913.466-1.826.688-2.743.107-.436 1.068-4.523 1.419-6.139z" fill="#ff956a"/></g><g><g><path d="m304.344 7.918c-3.795 0-7.414.747-10.726 2.091v10.771c3.096-1.992 6.771-3.161 10.726-3.161 10.974 0 19.869 8.896 19.869 19.869 0 10.974-8.896 19.869-19.869 19.869-3.955 0-7.63-1.169-10.726-3.161v29.47h39.273v-47.202c0-15.765-12.781-28.546-28.547-28.546z" fill="#e1faff"/></g><g><path d="m295.411 55.22c-6.481-3.273-10.936-9.974-10.936-17.73 0-7.757 4.455-14.458 10.936-17.73v-10.408c-11.388 3.751-19.613 14.468-19.613 27.112v47.203h19.613z" fill="#afe6ff"/></g><g><path d="m161.605 83.668h186.79v384.414h-186.79z" fill="#fa503c"/></g><g><path d="m161.605 439.8h186.79v28.282h-186.79z" fill="#e20a62"/></g><g><path d="m348.395 75.668h-98.383c.757 2.07 1.229 4.27 1.33 6.537.153 3.415-.735 6.641-2.346 9.463h99.398c4.418 0 8-3.582 8-8s-3.581-8-7.999-8z" fill="#fff"/></g><g><path d="m250.395 91.668h-88.79c-4.418 0-8-3.582-8-8s3.582-8 8-8h88.79c4.418 0 8 3.582 8 8s-3.582 8-8 8z" fill="#e1faff"/></g><g><path d="m348.395 460.082h-132.742c.764 2.079 1.239 4.288 1.341 6.562.153 3.408-.728 6.624-2.329 9.438h133.73c4.418 0 8-3.582 8-8s-3.582-8-8-8z" fill="#fff"/></g><g><path d="m216.395 476.082h-54.79c-4.418 0-8-3.582-8-8s3.582-8 8-8h54.79c4.418 0 8 3.582 8 8s-3.582 8-8 8z" fill="#e1faff"/></g><g fill="#fa503c"><path d="m343.955 106.836h-134.227v122.576l164.383-62.453v-29.967c0-16.654-13.501-30.156-30.156-30.156z"/><path d="m209.728 328.684v92.24c0 15.616 12.659 28.275 28.275 28.275h105.951c16.655 0 30.156-13.501 30.156-30.156v-90.36h-164.382z"/></g><g fill="#e20a62"><path d="m212.46 229.413v-92.42c0-16.655 13.501-30.156 30.156-30.156h-76.571c-16.655 0-30.156 13.501-30.156 30.156v92.42z"/><path d="m212.46 419.043v-90.36l-76.571 63.297v27.062c0 16.655 13.501 30.156 30.156 30.156h76.571c-16.655.001-30.156-13.5-30.156-30.155z"/></g><g><path d="m209.728 209.786v163.022l164.383-42.827v-163.022z" fill="#fff"/></g><g><path d="m136.137 228.959v163.022l76.323-19.885v-163.021z" fill="#e1faff"/></g></g></g></svg>