<svg id="Capa_1" enable-background="new 0 0 512 512" height="512" viewBox="0 0 512 512" width="512" xmlns="http://www.w3.org/2000/svg"><g><g><g><g><path d="m453.312 412.237c29.966-40.642 47.688-90.867 47.688-145.237 0-135.31-109.69-245-245-245s-245 109.69-245 245c0 54.37 17.722 104.595 47.688 145.237z" fill="#8ddfff"/></g></g></g><g><g><g><path d="m106 342.222 150 30 150-30c16.569 0 30-13.431 30-30 0-16.569-13.431-30-30-30l-150-30-150 30c-16.569 0-30 13.431-30 30 0 16.569 13.431 30 30 30z" fill="#994334"/></g></g></g><g><g><g><path d="m156 312.222c0-16.568 13.431-30 30-30l-.697-15.86-79.303 15.86c-16.569 0-30 13.432-30 30 0 16.569 13.431 30 30 30l80 16v-16c-16.569 0-30-13.431-30-30z" fill="#82362b"/></g></g></g><g><g><g><path d="m106 402.222h300c16.569 0 30-13.431 30-30 0-16.569-13.431-30-30-30h-300c-16.569 0-30 13.431-30 30 0 16.569 13.431 30 30 30z" fill="#ea2a3d"/></g></g></g><g><g><g><path d="m156 372.222c0-16.568 13.431-30 30-30h-80c-16.569 0-30 13.432-30 30 0 16.569 13.431 30 30 30h80c-16.569 0-30-13.431-30-30z" fill="#b7092b"/></g></g></g><g><g><g><g><path d="m408.769 382.038c-.174.085-.347.171-.519.258-8.58 4.332-18.99 1.978-25.318-5.256-7.943-9.081-19.613-14.818-32.627-14.818s-24.684 5.736-32.627 14.818c-6.328 7.235-16.738 9.588-25.318 5.256-.17-.086-.341-.171-.512-.254-16.358-7.992-33.479 9.696-24.975 25.794 12.381 23.439 37.301 53.702 83.44 53.702 46.143 0 71.057-30.268 83.433-53.708 8.499-16.099-8.618-33.78-24.977-25.792z" fill="#cdea50"/></g></g></g></g><g><g><g><path d="m377.989 372.222c-46.334 0-90.496 71.881-51.217 86.423-31.409-8.106-49.815-31.719-59.899-50.81-8.504-16.098 8.617-33.786 24.975-25.794.171.084.342.168.512.254 8.58 4.332 18.99 1.979 25.318-5.256 7.943-9.082 19.613-14.818 32.627-14.818 10.529.001 20.176 3.758 27.684 10.001z" fill="#a9d326"/></g></g></g><g><g><g><g><path d="m103.231 382.038c.174.085.347.171.519.258 8.58 4.332 18.99 1.978 25.318-5.256 7.943-9.081 19.613-14.818 32.627-14.818s24.684 5.736 32.627 14.818c6.328 7.235 16.738 9.588 25.318 5.256.17-.086.341-.171.512-.254 16.358-7.992 33.479 9.696 24.975 25.794-12.381 23.439-37.301 53.702-83.44 53.702-46.143 0-71.057-30.268-83.433-53.708-8.499-16.099 8.618-33.78 24.977-25.792z" fill="#a9d326"/></g></g></g></g><g><g><g><path d="m189.371 372.222c-46.334 0-90.496 71.881-51.217 86.423-31.409-8.106-49.815-31.719-59.899-50.81-8.504-16.098 8.617-33.786 24.975-25.794.171.084.342.168.512.254 8.58 4.332 18.99 1.979 25.318-5.256 7.943-9.082 19.613-14.818 32.627-14.818 10.53.001 20.177 3.758 27.684 10.001z" fill="#9bba19"/></g></g></g><g><g><g><path d="m453.312 412.237c-3.457-5.981-9.907-10.015-17.312-10.015h-360c-7.405 0-13.854 4.035-17.312 10.015 44.611 60.505 116.372 99.763 197.312 99.763s152.701-39.258 197.312-99.763z" fill="#ffaf10"/></g></g></g><g><g><g><path d="m406 222.222h-300c-16.569 0-30 13.432-30 30 0 16.569 13.431 30 30 30h34.838c19.949 0 38.646 9.878 49.744 26.455 18.11 27.053 42.166 54.399 65.414 54.399 23.249 0 47.308-27.348 65.42-54.401 11.098-16.576 29.794-26.452 49.742-26.452h34.841c16.569 0 30-13.431 30-30 .001-16.569-13.43-30.001-29.999-30.001z" fill="#ffd00d"/></g></g></g><g><g><g><path d="m76 252.222c0 16.569 13.431 30 30 30h34.838c19.949 0 38.646 9.878 49.744 26.455 18.11 27.053 42.166 54.399 65.414 54.399 13.011 0 26.275-8.568 38.609-20.854-79.378 0-119.818-120-119.818-120h-68.787c-16.569 0-30 13.432-30 30z" fill="#ffaf10"/></g></g></g><g><g><g><g><path d="m103.231 242.406c.174-.085.347-.171.519-.258 8.58-4.332 18.99-1.978 25.318 5.256 7.943 9.081 19.613 14.818 32.627 14.818s24.684-5.736 32.627-14.818c6.328-7.235 16.738-9.588 25.318-5.256.17.086.341.171.512.254 16.358 7.992 33.479-9.696 24.975-25.794-12.381-23.439-37.301-53.702-83.44-53.702-46.143 0-71.057 30.268-83.433 53.708-8.499 16.099 8.618 33.78 24.977 25.792z" fill="#9bba19"/></g></g></g></g><g><g><g><g><path d="m408.769 242.406c-.174-.085-.347-.171-.519-.258-8.58-4.332-18.99-1.978-25.318 5.256-7.943 9.081-19.613 14.818-32.627 14.818s-24.684-5.736-32.627-14.818c-6.328-7.235-16.738-9.588-25.318-5.256-.17.086-.341.171-.512.254-16.358 7.992-33.479-9.696-24.975-25.794 12.381-23.439 37.301-53.702 83.44-53.702 46.143 0 71.057 30.268 83.433 53.708 8.499 16.099-8.618 33.78-24.977 25.792z" fill="#a9d326"/></g></g></g></g><g><g><g><path d="m314.461 272.406c-.174-.085-.347-.171-.519-.258-8.58-4.332-18.99-1.978-25.318 5.256-7.943 9.081-19.613 14.818-32.627 14.818s-24.684-5.736-32.627-14.818c-6.328-7.235-16.738-9.588-25.318-5.256-.17.086-.341.171-.512.254-16.358 7.992-33.479-9.696-24.975-25.794 12.381-23.439 37.301-53.702 83.44-53.702 46.143 0 71.057 30.268 83.433 53.708 8.499 16.099-8.619 33.78-24.977 25.792z" fill="#cdea50"/></g></g></g><g><g><g><path d="m283.68 282.222c-46.334 0-90.496-71.881-51.217-86.423-31.409 8.106-49.815 31.719-59.899 50.81-8.504 16.098 8.617 33.786 24.975 25.794.171-.084.342-.168.512-.254 8.58-4.332 18.99-1.979 25.318 5.256 7.943 9.082 19.613 14.818 32.627 14.818 10.53-.001 20.177-3.758 27.684-10.001z" fill="#a9d326"/></g></g></g><path d="m244.628 193.564-38.881 38.221c-2.954 2.904-2.995 7.652-.091 10.606 1.468 1.494 3.408 2.242 5.349 2.242 1.898 0 3.797-.716 5.257-2.151l32.242-31.695v43.276c0 4.142 3.358 7.5 7.5 7.5s7.5-3.358 7.5-7.5v-43.268l32.233 31.686c2.954 2.903 7.702 2.862 10.606-.091 2.904-2.954 2.863-7.703-.091-10.606l-38.883-38.222c-3.641-.419-7.42-.656-11.366-.656-3.948.001-7.731.238-11.375.658z" fill="#9bba19"/><g><g><g><g><path d="m436 222.222h-360c-11.046 0-20-8.954-20-20v-2.222c0-110.457 89.543-200 200-200 110.457 0 200 89.543 200 200v2.222c0 11.046-8.954 20-20 20z" fill="#ffaf10"/></g></g></g></g><g><g><g><path d="m151.319 29.562c-57.186 35.198-95.319 98.361-95.319 170.438v2.222c0 11.046 8.954 20 20 20h246.502c-120.62 0-230.937-150.27-171.183-192.66z" fill="#ff9518"/></g></g></g><g><g><g><path d="m266.167 34.469c3.079 4.585 1.859 10.798-2.726 13.877-7.807 5.244-19.317.928-19.317.928s.359-12.287 8.166-17.531c4.585-3.079 10.798-1.859 13.877 2.726z" fill="#ffd00d"/></g></g></g><g><g><g><path d="m413.597 156.882c3.079 4.585 1.859 10.798-2.726 13.877-7.807 5.244-19.317.928-19.317.928s.359-12.287 8.166-17.531c4.585-3.079 10.798-1.859 13.877 2.726z" fill="#ffd00d"/></g></g></g><g><g><g><path d="m266.109 159.739c1.697-5.256 7.334-8.14 12.589-6.443 8.949 2.89 12.679 14.603 12.679 14.603s-9.876 7.319-18.825 4.429c-5.256-1.697-8.14-7.334-6.443-12.589z" fill="#ffd00d"/></g></g></g><g><g><g><path d="m201.655 149.669c5.511.36 9.687 5.119 9.327 10.63-.613 9.384-11.057 15.867-11.057 15.867s-9.513-7.785-8.901-17.169c.361-5.512 5.12-9.688 10.631-9.328z" fill="#ffd00d"/></g></g></g><g><g><g><path d="m244.514 97.024c1.358-4.204 5.866-6.511 10.07-5.153 7.158 2.312 10.141 11.681 10.141 11.681s-7.9 5.854-15.058 3.542c-4.204-1.358-6.511-5.866-5.153-10.07z" fill="#ffd00d"/></g></g></g><g><g><g><path d="m383.215 116.654c1.358-4.204 5.866-6.511 10.07-5.153 7.158 2.312 10.141 11.681 10.141 11.681s-7.9 5.854-15.058 3.542c-4.204-1.358-6.511-5.867-5.153-10.07z" fill="#ffd00d"/></g></g></g><g><g><g><path d="m312.183 128.292c-5.273-1.642-8.216-7.248-6.574-12.521 2.797-8.979 14.47-12.83 14.47-12.83s7.422 9.799 4.625 18.778c-1.642 5.272-7.248 8.215-12.521 6.573z" fill="#ffd00d"/></g></g></g><g><g><g><path d="m339.92 73.697c-3.051-.95-4.754-4.194-3.803-7.245 1.618-5.195 8.372-7.423 8.372-7.423s4.294 5.67 2.676 10.865c-.95 3.05-4.194 4.753-7.245 3.803z" fill="#ffd00d"/></g></g></g><g><g><g><path d="m103.119 164.905c-5.273-1.642-8.216-7.248-6.574-12.521 2.797-8.979 14.47-12.83 14.47-12.83s7.422 9.799 4.625 18.778c-1.642 5.272-7.248 8.215-12.521 6.573z" fill="#ef8318"/></g></g></g><g><g><g><path d="m323.504 48.369c-3.835 3.974-10.166 4.087-14.14.252-6.767-6.53-4.967-18.69-4.967-18.69s12.088-2.232 18.855 4.299c3.974 3.834 4.087 10.165.252 14.139z" fill="#ffd00d"/></g></g></g><g><g><g><path d="m150.058 185.924c-2.828 2.93-7.495 3.013-10.426.186-4.99-4.815-3.662-13.781-3.662-13.781s8.913-1.645 13.902 3.17c2.931 2.827 3.014 7.495.186 10.425z" fill="#ef8318"/></g></g></g><g><g><g><path d="m361.488 178.227c-2.372 2.458-6.287 2.528-8.745.156-4.185-4.039-3.072-11.559-3.072-11.559s7.476-1.38 11.661 2.659c2.458 2.371 2.528 6.287.156 8.744z" fill="#ffd00d"/></g></g></g><g><g><g><path d="m206.109 37.915c-2.372 2.458-6.287 2.528-8.745.156-4.185-4.039-3.072-11.559-3.072-11.559s7.476-1.38 11.661 2.659c2.458 2.371 2.528 6.286.156 8.744z" fill="#ffd00d"/></g></g></g><g><g><g><path d="m172.997 122.067c-3.002-1.63-4.114-5.384-2.485-8.386 2.775-5.112 10.32-6.047 10.32-6.047s3.326 6.836.551 11.948c-1.63 3.002-5.384 4.115-8.386 2.485z" fill="#ffd00d"/></g></g></g><g><g><g><path d="m177.744 79.851c-3.835 3.974-10.166 4.087-14.14.252-6.767-6.53-4.967-18.69-4.967-18.69s12.088-2.232 18.855 4.299c3.974 3.834 4.087 10.165.252 14.139z" fill="#ffd00d"/></g></g></g><g><g><g><circle cx="396.404" cy="319.894" fill="#82362b" r="10"/></g></g></g><g><g><g><circle cx="362.383" cy="304.722" fill="#82362b" r="7.5"/></g></g></g><g><g><g><circle cx="114.723" cy="322.394" fill="#994334" r="7.5"/></g></g></g><g><g><g><path d="m398.186 417.222h-256.38c-4.179 0-7.633-3.451-7.429-7.624.126-2.57.973-5.041 2.587-7.376h-60.964c-7.405 0-13.854 4.035-17.312 10.015 44.611 60.505 116.372 99.763 197.312 99.763 40.12 0 77.982-9.65 111.404-26.748-35.115 0-68.01-3.124-97.391-8.286-8.939-1.571-7.785-14.745 1.292-14.745h86.881c4.107 0 7.688-3.164 7.811-7.269.128-4.247-3.278-7.731-7.497-7.731h-184.024c-1.172 0-2.337-.274-3.38-.809-.096-.049-.191-.098-.287-.147-6.94-3.572-4.427-14.044 3.378-14.044h224.313c4.219 0 7.624-3.483 7.497-7.731-.124-4.103-3.705-7.268-7.811-7.268z" fill="#ff9518"/></g></g></g></g></svg>