<svg id="Capa_1" enable-background="new 0 0 512 512" height="512" viewBox="0 0 512 512" width="512" xmlns="http://www.w3.org/2000/svg"><g><g><g><g><circle cx="256" cy="245" fill="#2da1dc" r="245"/></g></g></g><g><g><g><circle cx="359.013" cy="70.489" fill="#293d7c" r="20"/></g></g></g><g><g><g><circle cx="318.191" cy="66.915" fill="#445ea0" r="30"/></g></g></g><g><g><g><path d="m318.191 66.915c0-11.102 6.036-20.789 15-25.977-4.414-2.554-9.534-4.023-15-4.023-16.569 0-30 13.432-30 30s13.431 30 30 30c5.466 0 10.586-1.469 15-4.023-8.964-5.188-15-14.875-15-25.977z" fill="#2e4c89"/></g></g></g><g><g><g><circle cx="152.987" cy="70.489" fill="#293d7c" r="20"/></g></g></g><g><g><g><circle cx="193.809" cy="66.915" fill="#445ea0" r="30"/></g></g></g><g><g><g><path d="m193.809 66.915c0-11.102 6.036-20.789 15-25.977-4.414-2.554-9.534-4.023-15-4.023-16.569 0-30 13.432-30 30s13.431 30 30 30c5.466 0 10.586-1.469 15-4.023-8.965-5.188-15-14.875-15-25.977z" fill="#2e4c89"/></g></g></g><g><g><g><path d="m302.745 80.341-24.71 42.799c-4.142 7.174-13.316 9.633-20.49 5.49l-42.799-24.71c-7.174-4.142-9.633-13.316-5.49-20.49l24.71-42.799c4.142-7.174 13.316-9.633 20.49-5.49l42.799 24.71c7.174 4.142 9.632 13.316 5.49 20.49z" fill="#ff9518"/></g></g></g><g><g><g><path d="m426 161.596h-340c-11.046 0-20-8.954-20-20 0-11.046 8.954-20 20-20h340c11.046 0 20 8.954 20 20 0 11.045-8.954 20-20 20z" fill="#ffe2b8"/></g></g></g><g><g><g><path d="m134 141.596c0-11.046 8.954-20 20-20h-68c-11.046 0-20 8.954-20 20 0 11.046 8.954 20 20 20h68c-11.046 0-20-8.955-20-20z" fill="#ffd782"/></g></g></g><g><g><g><path d="m426 201.596h-340c-11.046 0-20-8.954-20-20 0-11.046 8.954-20 20-20h340c11.046 0 20 8.954 20 20 0 11.045-8.954 20-20 20z" fill="#ffc987"/></g></g></g><g><g><g><path d="m134 181.596c0-11.046 8.954-20 20-20h-68c-11.046 0-20 8.954-20 20 0 11.046 8.954 20 20 20h68c-11.046 0-20-8.955-20-20z" fill="#fcbb75"/></g></g></g><g><g><g><path d="m426 241.596h-340c-11.046 0-20-8.954-20-20 0-11.046 8.954-20 20-20h340c11.046 0 20 8.954 20 20 0 11.045-8.954 20-20 20z" fill="#ffe2b8"/></g></g></g><g><g><g><path d="m134 221.596c0-11.046 8.954-20 20-20h-68c-11.046 0-20 8.954-20 20 0 11.046 8.954 20 20 20h68c-11.046 0-20-8.955-20-20z" fill="#ffd782"/></g></g></g><g><g><g><path d="m426 281.596h-340c-11.046 0-20-8.954-20-20 0-11.046 8.954-20 20-20h340c11.046 0 20 8.954 20 20 0 11.045-8.954 20-20 20z" fill="#ffc987"/></g></g></g><g><g><g><path d="m134 261.596c0-11.046 8.954-20 20-20h-68c-11.046 0-20 8.954-20 20 0 11.046 8.954 20 20 20h68c-11.046 0-20-8.955-20-20z" fill="#fcbb75"/></g></g></g><g><g><g><path d="m426 321.596h-340c-11.046 0-20-8.954-20-20 0-11.046 8.954-20 20-20h340c11.046 0 20 8.954 20 20 0 11.045-8.954 20-20 20z" fill="#ffe2b8"/></g></g></g><g><g><g><path d="m134 301.596c0-11.046 8.954-20 20-20h-68c-11.046 0-20 8.954-20 20 0 11.046 8.954 20 20 20h68c-11.046 0-20-8.955-20-20z" fill="#ffd782"/></g></g></g><g><g><g><path d="m426 361.596h-340c-11.046 0-20-8.954-20-20 0-11.046 8.954-20 20-20h340c11.046 0 20 8.954 20 20 0 11.045-8.954 20-20 20z" fill="#ffc987"/></g></g></g><g><g><g><path d="m426 401.596h-340c-11.046 0-20-8.954-20-20 0-11.046 8.954-20 20-20h340c11.046 0 20 8.954 20 20 0 11.045-8.954 20-20 20z" fill="#ffe2b8"/></g></g></g><g><g><g><path d="m426 441.596h-340c-11.046 0-20-8.954-20-20 0-11.046 8.954-20 20-20h340c11.046 0 20 8.954 20 20 0 11.045-8.954 20-20 20z" fill="#ffc987"/></g></g></g><g><g><g><path d="m134 341.596c0-11.046 8.954-20 20-20h-68c-11.046 0-20 8.954-20 20 0 11.046 8.954 20 20 20h68c-11.046 0-20-8.955-20-20z" fill="#fcbb75"/></g></g></g><g><g><g><path d="m134 381.596c0-11.046 8.954-20 20-20h-68c-11.046 0-20 8.954-20 20 0 11.046 8.954 20 20 20h68c-11.046 0-20-8.955-20-20z" fill="#ffd782"/></g></g></g><g><g><g><path d="m386 81.596h-260c-11.046 0-20 8.954-20 20 0 11.046 8.954 20 20 20h30.551c11.046 0 20 8.954 20 20v80c0 11.046 8.954 20 20 20 11.046 0 20-8.954 20-20v-20c0-11.046 8.954-20 20-20 11.046 0 20 8.954 20 20v140c0 11.046 8.954 20 20 20 11.046 0 20-8.954 20-20v-20c0-11.046 8.954-20 20-20 11.046 0 20-8.954 20-20v-140c0-11.046 8.954-20 20-20h29.449c11.046 0 20-8.954 20-20 0-11.046-8.954-20-20-20z" fill="#ffaf10"/></g></g></g><g><g><g><path d="m369.992 413.246c-18.066 15.16-41.006 23.51-64.591 23.51h-98.803c-23.584 0-46.523-8.349-64.591-23.509-12.674-10.635-28.765-16.491-45.308-16.491l-62.172 15c.001-.001 65.154 100.244 221.473 100.244s221.472-100.245 221.472-100.245l-62.172-15c-16.543 0-32.634 5.857-45.308 16.491z" fill="#d9eafc"/></g></g></g><g><g><g><g><path d="m169.011 429.433c-9.73-3.924-18.864-9.357-27.003-16.187-12.674-10.635-28.765-16.491-45.308-16.491l-62.172 15s65.153 100.245 221.472 100.245c21.742 0 41.715-1.944 60-5.283-78.019-14.248-125.203-53.973-146.989-77.284z" fill="#c3ddf4"/></g></g></g></g><g><g><g><g><path d="m305.401 451.755h-98.803c-23.584 0-46.523-8.349-64.591-23.509-12.674-10.635-28.765-16.491-45.308-16.491h-81.699c-8.284 0-15-6.716-15-15s6.716-15 15-15h81.7c23.584 0 46.522 8.349 64.591 23.508 12.674 10.636 28.765 16.492 45.308 16.492h98.803c16.543 0 32.634-5.856 45.308-16.491 18.067-15.16 41.006-23.509 64.591-23.509h81.699c8.284 0 15 6.716 15 15s-6.716 15-15 15h-81.7c-16.543 0-32.634 5.856-45.308 16.49-18.066 15.161-41.006 23.51-64.591 23.51z" fill="#eef6ff"/></g></g></g></g><g><g><g><path d="m241 436.755c0-8.284 6.716-15 15-15h-49.401c-16.543 0-32.634-5.856-45.308-16.492-18.068-15.159-41.007-23.508-64.591-23.508h-81.7c-8.284 0-15 6.716-15 15s6.716 15 15 15h81.7c16.543 0 32.634 5.856 45.308 16.491 18.067 15.16 41.007 23.509 64.591 23.509h49.401c-8.284 0-15-6.715-15-15z" fill="#d9eafc"/></g></g></g><g><g><g><path d="m126 81.596c-11.046 0-20 8.954-20 20 0 11.046 8.954 20 20 20h30.551c11.046 0 20 8.954 20 20v79.521c0 10.845 8.433 20.081 19.271 20.466 11.378.405 20.729-8.699 20.729-19.987v-19.521c0-10.845 8.433-20.081 19.271-20.466 11.378-.405 20.729 8.699 20.729 19.987v139.521c0 10.845 8.433 20.081 19.271 20.466 11.378.405 20.729-8.699 20.729-19.987v-170c0-16.569-13.431-30-30-30h-20c-16.569 0-30-13.431-30-30 0-16.569-13.431-30-30-30z" fill="#ff9518"/></g></g></g></g></svg>